<svg width="15" height="15" fill="none" xmlns="http://www.w3.org/2000/svg"><path d="M14.607 11.572L11.57 9.547a.886.886 0 00-1.187.193L9.5 10.877a.378.378 0 01-.485.102l-.168-.093c-.558-.304-1.252-.682-2.65-2.08-1.398-1.4-1.777-2.094-2.08-2.65l-.093-.169a.378.378 0 01.1-.486l1.136-.884a.887.887 0 00.193-1.187L3.428.394A.882.882 0 002.24.127L.97.889a1.79 1.79 0 00-.816 1.06c-.457 1.666-.113 4.54 4.122 8.776C7.644 14.094 10.152 15 11.876 15c.397.001.792-.05 1.175-.154a1.79 1.79 0 001.06-.816l.763-1.27a.882.882 0 00-.267-1.188zm-.164.932l-.761 1.27c-.168.288-.442.5-.763.59-1.537.423-4.224.073-8.29-3.993C.564 6.306.214 3.62.636 2.082c.091-.32.304-.594.592-.763l1.27-.762a.382.382 0 01.515.116l1.1 1.652.923 1.384a.385.385 0 01-.083.515l-1.137.884a.875.875 0 00-.232 1.123l.09.164c.32.586.717 1.315 2.167 2.765 1.45 1.45 2.179 1.847 2.765 2.166l.164.09a.875.875 0 001.123-.231l.884-1.137a.385.385 0 01.515-.083l3.036 2.025c.17.113.221.34.115.515zM8.5 2.501a4.254 4.254 0 014.25 4.25.25.25 0 00.5 0A4.754 4.754 0 008.5 2a.25.25 0 100 .5z" fill="#fff"/><path d="M8.5 4.001a2.753 2.753 0 012.75 2.75.25.25 0 10.5 0A3.253 3.253 0 008.5 3.5a.25.25 0 100 .5z" fill="#fff"/><path d="M8.5 5.5c.69.002 1.249.56 1.25 1.25a.25.25 0 00.5 0A1.752 1.752 0 008.5 5a.25.25 0 100 .5z" fill="#fff"/></svg>