<svg width="24" height="24" fill="none" xmlns="http://www.w3.org/2000/svg"><path fill-rule="evenodd" clip-rule="evenodd" d="M17 2.757L12.757 7 17 11.243 21.243 7 17 2.757zm-5.657 2.829a2 2 0 000 2.828l4.243 4.243a2 2 0 002.828 0l4.243-4.243a2 2 0 000-2.828l-4.243-4.243a2 2 0 00-2.828 0l-4.243 4.243zM7 4H3a1 1 0 00-1 1v4a1 1 0 001 1h4a1 1 0 001-1V5a1 1 0 00-1-1zM3 2a3 3 0 00-3 3v4a3 3 0 003 3h4a3 3 0 003-3V5a3 3 0 00-3-3H3zm4 14H3a1 1 0 00-1 1v4a1 1 0 001 1h4a1 1 0 001-1v-4a1 1 0 00-1-1zm-4-2a3 3 0 00-3 3v4a3 3 0 003 3h4a3 3 0 003-3v-4a3 3 0 00-3-3H3zm16 2h-4a1 1 0 00-1 1v4a1 1 0 001 1h4a1 1 0 001-1v-4a1 1 0 00-1-1zm-4-2a3 3 0 00-3 3v4a3 3 0 003 3h4a3 3 0 003-3v-4a3 3 0 00-3-3h-4z" fill="#fff"/></svg>