<svg width="15" height="10" fill="none" xmlns="http://www.w3.org/2000/svg"><path d="M14.995.222a.21.21 0 00-.03-.086c-.004-.007-.005-.014-.01-.02-.004-.006-.01-.009-.015-.014a.246.246 0 00-.119-.07.308.308 0 00-.05-.009c-.007 0-.014-.004-.022-.004H.25a.252.252 0 00-.022.004.269.269 0 00-.168.08L.044.116C.04.122.04.13.034.136a.204.204 0 00-.03.087C.005.23 0 .237 0 .245v8.976c0 .124.112.225.25.225h14.5c.138 0 .25-.1.25-.225V.245c0-.008-.004-.015-.005-.023zM13.947.47L7.5 4.46 1.053.47h12.894zm.553 8.528H.5V.672l6.858 4.246a.274.274 0 00.284 0L14.5.672v8.325z" fill="#fff"/></svg>