<svg width="21" height="23" fill="none" xmlns="http://www.w3.org/2000/svg"><path d="M3.065 0H1.718v16.262H.37v4.043h1.348V23h1.347v-2.695h1.348v-4.043H3.065V0zm0 18.957H1.718v-1.348h1.347v1.348zm17.565-2.695h-1.348V0h-1.347v16.262h-1.348v4.043h1.348V23h1.347v-2.695h1.348v-4.043zm-1.348 2.695h-1.347v-1.348h1.347v1.348zM13.892 0h-1.348v9.973h-1.348v4.043h1.348V23h1.348v-8.984h1.347V9.973h-1.347V0zm0 12.668h-1.348V11.32h1.348v1.348zM8.456 0H7.108v2.41H5.761v4.043h1.347V23h1.348V6.453h1.348V2.41H8.456V0zm0 5.105H7.108V3.758h1.348v1.347z" fill="#fff"/></svg>