<svg width="12" height="12" fill="none" xmlns="http://www.w3.org/2000/svg"><g clip-path="url(#clip0)" fill="#0E3C22"><path d="M11.909 5.6L9.695 3.71l.008-.042V1.195a.276.276 0 00-.267-.271H8.2c-.143 0-.259.127-.259.271V2.22L6.17.71a.259.259 0 00-.336 0L.093 5.597a.258.258 0 10.332.398L.43 5.99 6 1.247l1.994 1.7L9.188 3.96l2.387 2.034c.109.093.272.08.365-.029a.261.261 0 00-.031-.365zM9.183 3.272l-.725-.61V1.444h.725v1.828z"/><path d="M10.768 6.123l-.727-.62-3.872-3.31a.259.259 0 00-.336 0l-3.872 3.31-.727.62a.258.258 0 00-.028.365c.09.108.25.121.357.03l.002-.002.324-.28v4.85a.273.273 0 00.266.267h7.69a.271.271 0 00.266-.267v-4.85l.324.28a.257.257 0 10.333-.393zm-3.732 4.71h-2.07V8.04h2.07v2.793zm.517 0V7.789c0-.143-.106-.267-.248-.267H4.698c-.143 0-.249.124-.249.267v3.044H2.406V5.794L6 2.732l3.596 3.062v5.039H7.553z"/></g><defs><clipPath id="clip0"><path fill="#fff" d="M0 0h12v12H0z"/></clipPath></defs></svg>