<svg width="11" height="15" fill="none" xmlns="http://www.w3.org/2000/svg"><path d="M5.549 3.287A1.92 1.92 0 003.63 5.205a1.92 1.92 0 001.92 1.917 1.92 1.92 0 001.917-1.917A1.92 1.92 0 005.55 3.287zm0 3.288c-.755 0-1.37-.615-1.37-1.37 0-.755.615-1.37 1.37-1.37.755 0 1.37.615 1.37 1.37 0 .755-.615 1.37-1.37 1.37z" fill="#000"/><path d="M9.215 1.539A5.22 5.22 0 005.5 0a5.219 5.219 0 00-3.714 1.539C-.05 3.375-.278 6.829 1.292 8.922L5.5 15l4.203-6.07c1.577-2.101 1.348-5.555-.488-7.391zM9.26 8.61L5.5 14.037 1.736 8.602c-1.424-1.9-1.22-5.019.438-6.676A4.674 4.674 0 015.5.548a4.68 4.68 0 013.328 1.378c1.657 1.657 1.861 4.777.43 6.684z" fill="#000"/></svg>