<svg width="50" height="50" fill="none" xmlns="http://www.w3.org/2000/svg"><path d="M37.5 25.781c-1.975 0-3.834.496-5.469 1.363v-4.287a11.649 11.649 0 005.469 1.362c6.462 0 11.719-5.257 11.719-11.719S43.962.781 37.5.781c-4.58 0-8.544 2.648-10.471 6.487L19.06 1.396c-1.078-.794-2.669-.794-3.747 0L.781 12.107v4.3h1.563v15.272A11.637 11.637 0 00.78 37.5c0 6.462 5.257 11.719 11.719 11.719s11.72-5.257 11.72-11.719c0-.802-.082-1.586-.236-2.344h2.035a11.708 11.708 0 00-.237 2.344c0 6.462 5.257 11.719 11.719 11.719S49.219 43.962 49.219 37.5 43.962 25.781 37.5 25.781zm0-23.437c5.6 0 10.156 4.556 10.156 10.156 0 5.6-4.556 10.156-10.156 10.156-5.6 0-10.156-4.556-10.156-10.156 0-5.6 4.556-10.156 10.156-10.156zM25.821 13.28c.035.53.093 1.054.197 1.563h-8.05V13.28h7.853zm-4.304-8.134L19.531 7.53v2.626h1.563v-1.08l1.994.997.7-1.397-2.243-1.121 1.233-1.48 3.63 2.675a11.67 11.67 0 00-.586 2.968h-7.853V2.571c.054.03.115.046.165.083l3.383 2.493zm-5.276-2.492c.05-.037.11-.053.165-.083v9.147H3.94l5.69-4.193.752 1.753 4.31.862.307-1.532-3.503-.7-.573-1.335 5.319-3.92zM2.344 13.28h14.062v1.563H2.344V13.28zm1.562 3.125h12.5v10.059a11.567 11.567 0 00-1.562-.448V17.97H5.469v10.178c-.563.424-1.085.896-1.563 1.412V16.406zm9.375 9.415c-.26-.017-.517-.04-.781-.04a11.64 11.64 0 00-5.469 1.363V19.53h6.25v6.29zM12.5 47.656C6.9 47.656 2.344 43.1 2.344 37.5c0-5.6 4.556-10.156 10.156-10.156 5.6 0 10.156 4.556 10.156 10.156 0 5.6-4.556 10.156-10.156 10.156zm11.035-14.062a11.767 11.767 0 00-5.566-6.45V16.406h8.496a11.695 11.695 0 001.682 3.125H19.53v7.813h9.375V20.44c.478.516 1 .988 1.563 1.412v6.295a11.75 11.75 0 00-4.004 5.446h-2.93zm3.809-12.5v4.687h-6.25v-4.687h6.25zM37.5 47.656c-5.6 0-10.156-4.556-10.156-10.156 0-5.6 4.556-10.156 10.156-10.156 5.6 0 10.156 4.556 10.156 10.156 0 5.6-4.556 10.156-10.156 10.156z" fill="#0A6B38"/><path d="M17.188 30.469h-6.25a2.34 2.34 0 00-2.2 1.562h-3.27v4.517l6.25 1.562v1.877a2.34 2.34 0 00-1.562 2.2v1.563a2.347 2.347 0 002.344 2.344 2.347 2.347 0 002.344-2.344v-1.563a2.34 2.34 0 00-1.563-2.2V36.89l-6.25-1.562v-1.733h1.707a2.34 2.34 0 002.2 1.562h6.25a2.347 2.347 0 002.343-2.343 2.347 2.347 0 00-2.343-2.344zM13.28 43.75a.782.782 0 01-1.562 0v-1.563a.782.782 0 011.562 0v1.563zm3.906-10.156h-6.25a.782.782 0 010-1.563h6.25a.782.782 0 010 1.563zm17.189-18.75c.405 0 .81-.055 1.209-.165l4.165 4.165a2.326 2.326 0 001.657.687 2.33 2.33 0 001.657-.686 2.327 2.327 0 00.687-1.657c0-.626-.244-1.215-.687-1.657l-4.165-4.166c.109-.4.164-.803.164-1.209a4.692 4.692 0 00-4.687-4.687h-.323L32.489 7.03l1.858 1.858a1.565 1.565 0 01-1.238 1.24L31.25 8.27l-1.563 1.563v.323a4.692 4.692 0 004.688 4.688zm-1.886-3.125h.324a3.128 3.128 0 003.124-3.125V8.27l-1.22-1.22a3.13 3.13 0 012.783 3.106c0 .378-.075.76-.222 1.135l-.187.476 4.868 4.867a.77.77 0 01.228.553c0 .212-.08.404-.228.553-.3.3-.805.3-1.105 0l-4.867-4.867-.476.186a3.122 3.122 0 01-1.136.222 3.13 3.13 0 01-3.106-2.783l1.22 1.22zm2.657 21.038l-1.381.55 3.412 3.412-1.805 1.805c-.868-.391-1.961-.249-2.653.444l-1.563 1.563a2.324 2.324 0 00-.687 1.657c0 .625.243 1.214.686 1.656a2.326 2.326 0 001.657.687 2.33 2.33 0 001.657-.687l1.563-1.562a2.326 2.326 0 00.687-1.657c0-.355-.086-.693-.235-1.004l1.797-1.797 3.41 3.41.553-1.38a20.99 20.99 0 001.506-7.823v-.781h-.781c-2.693 0-5.325.507-7.823 1.507zm-.219 8.42l-1.562 1.563c-.3.3-.805.3-1.105 0a.767.767 0 01-.229-.553c0-.211.08-.403.23-.552l1.562-1.562c.15-.15.34-.23.552-.23.212 0 .402.08.552.23.15.149.23.34.23.552 0 .212-.08.403-.23.552zm6.178-2.74l-4.542-4.542a19.368 19.368 0 015.609-1.066 19.396 19.396 0 01-1.066 5.608z" fill="#0A6B38"/></svg>