<svg width="50" height="50" fill="none" xmlns="http://www.w3.org/2000/svg"><path d="M12.46 45.151A11.075 11.075 0 011.397 34.088v-.055c0-.036-.004-.091-.009-.163-.227-4.018.43-14.865 11.405-28.765a.676.676 0 011.17.637c-.031.092-3.03 9.076-.981 17.297a11.063 11.063 0 01-.525 22.114l.003-.002zM2.75 34.127a9.712 9.712 0 109.711-9.75.676.676 0 01-.651-.496c-1.554-5.655-.792-11.588-.02-15.188-8.705 12.195-9.252 21.503-9.049 25.1.01.112.012.223.009.334zm34.836 11.024a11.075 11.075 0 01-11.063-11.063v-.055c0-.036-.005-.091-.009-.163-.227-4.018.43-14.865 11.405-28.765a.676.676 0 011.17.637c-.032.092-3.03 9.076-.982 17.297a11.063 11.063 0 01-.524 22.114l.003-.002zm-9.712-11.024a9.712 9.712 0 109.712-9.75.676.676 0 01-.652-.496c-1.554-5.655-.791-11.588-.02-15.188-8.705 12.195-9.252 21.503-9.049 25.1.01.112.013.223.01.334z" fill="#0A6B38"/></svg>