<svg width="50" height="50" fill="none" xmlns="http://www.w3.org/2000/svg"><g clip-path="url(#clip0)" fill="#0A6B38"><path d="M47.313 30.006a2.575 2.575 0 00.843-1.91v-6.192a2.589 2.589 0 00-2.584-2.587h-1.576a20.646 20.646 0 00-1.817-4.382l1.115-1.115a2.57 2.57 0 00.757-1.832 2.564 2.564 0 00-.757-1.825l-4.378-4.378a2.564 2.564 0 00-1.83-.758c-.693 0-1.343.27-1.829.757l-1.114 1.115a20.653 20.653 0 00-4.381-1.817V3.506A2.589 2.589 0 0027.174.92h-6.192a2.589 2.589 0 00-2.587 2.585v1.576a20.645 20.645 0 00-4.381 1.817l-1.115-1.115a2.59 2.59 0 00-3.657 0l-4.379 4.378a2.563 2.563 0 00-.757 1.826c0 .693.268 1.344.756 1.832l1.115 1.115a20.644 20.644 0 00-1.816 4.382H2.584A2.589 2.589 0 000 21.904v6.192a2.589 2.589 0 002.584 2.587h1.577a20.645 20.645 0 001.816 4.382l-1.114 1.114a2.564 2.564 0 00-.757 1.83c0 .693.269 1.342.756 1.828l4.379 4.378a2.562 2.562 0 001.826.758 2.586 2.586 0 001.832-.757l1.115-1.114a20.658 20.658 0 004.38 1.816v1.576a2.589 2.589 0 002.588 2.585h6.192a2.589 2.589 0 002.588-2.585v-1.576a20.824 20.824 0 002.88-1.06 10.065 10.065 0 007.263 3.092c1.654 0 3.297-.41 4.75-1.185a.733.733 0 00-.69-1.293 8.648 8.648 0 01-4.06 1.013c-4.758 0-8.63-3.871-8.63-8.63 0-4.758 3.872-8.63 8.63-8.63 4.759 0 8.63 3.872 8.63 8.63a8.623 8.623 0 01-2.184 5.737.732.732 0 101.094.973 10.085 10.085 0 00-.132-13.56zm-8.616-3.173c.076-.607.114-1.22.114-1.834 0-8.123-6.61-14.732-14.734-14.732-2.41 0-4.8.595-6.916 1.722a.732.732 0 10.688 1.293 13.294 13.294 0 016.228-1.55c7.317 0 13.27 5.951 13.27 13.267 0 .717-.06 1.434-.173 2.137-4.243 1.194-7.363 5.1-7.363 9.72l.002.111a13.09 13.09 0 01-2.1.799v-7.488c3.022-1.336 5.019-4.36 5.019-7.682a8.398 8.398 0 00-3.68-6.939c-.332-.227-1.343-.919-2.178-.438-.816.47-.732 1.6-.692 2.143.004.053.008.097.008.126v4.604c0 1.2-.924 2.207-2.113 2.313a2.329 2.329 0 01-2.113-2.313V17.49c0-.03.004-.075.008-.129.04-.542.125-1.672-.69-2.142-.834-.48-1.845.211-2.177.438a8.398 8.398 0 00-3.68 6.939c0 3.321 1.996 6.346 5.018 7.682v7.484C14.89 36.178 10.81 31.056 10.81 25c0-3.86 1.677-7.52 4.6-10.043a.733.733 0 00-.958-1.109A14.72 14.72 0 009.346 25c0 8.124 6.608 14.734 14.73 14.734 2.055 0 4.025-.41 5.872-1.217a10.041 10.041 0 001.722 4.17c-.915.392-1.86.715-2.823.962a.732.732 0 00-.55.71v2.136c0 .618-.504 1.12-1.123 1.12h-6.192a1.122 1.122 0 01-1.122-1.12v-2.137a.733.733 0 00-.551-.71 19.18 19.18 0 01-5.043-2.09.733.733 0 00-.891.112l-1.512 1.512a1.115 1.115 0 01-.794.327c-.3 0-.581-.116-.792-.328l-4.38-4.38a1.11 1.11 0 01-.326-.792c0-.3.116-.582.327-.793l1.512-1.511a.732.732 0 00.112-.892 19.185 19.185 0 01-2.09-5.042.732.732 0 00-.71-.551H2.583c-.617 0-1.12-.504-1.12-1.123v-6.192c0-.62.503-1.123 1.12-1.123H4.72a.733.733 0 00.71-.55 19.183 19.183 0 012.09-5.043.732.732 0 00-.111-.892l-1.512-1.511a1.115 1.115 0 01-.327-.795c0-.3.116-.58.327-.791l4.38-4.38c.21-.21.49-.327.79-.327h.001c.301 0 .583.116.794.328l1.512 1.511a.732.732 0 00.891.112 19.185 19.185 0 015.043-2.09.733.733 0 00.55-.71V3.506c0-.618.504-1.12 1.123-1.12h6.192c.62 0 1.123.502 1.123 1.12v2.137c0 .334.226.626.55.71a19.18 19.18 0 015.043 2.09c.288.17.655.125.892-.112l1.512-1.512c.21-.21.491-.327.792-.327.301 0 .582.116.793.328l4.38 4.38a1.12 1.12 0 01-.001 1.585l-1.511 1.511a.732.732 0 00-.112.892 19.184 19.184 0 012.09 5.042.733.733 0 00.71.552h2.137c.617 0 1.12.503 1.12 1.122v6.192c0 .358-.178.692-.458.901a10.045 10.045 0 00-7.537-2.164zM21.43 29.098c-2.716-1.005-4.54-3.619-4.54-6.502a6.935 6.935 0 013.041-5.73c.286-.195.473-.281.583-.319.022.144.022.38-.003.705a3.27 3.27 0 00-.012.236v4.604a3.797 3.797 0 003.528 3.779.723.723 0 00.1 0 3.797 3.797 0 003.528-3.779v-4.604c0-.068-.005-.141-.012-.234-.024-.327-.025-.564-.002-.707.11.037.298.123.586.32a6.935 6.935 0 013.04 5.729c0 2.883-1.825 5.497-4.54 6.502a.732.732 0 00-.479.687v8.308a13.457 13.457 0 01-4.34-.003v-8.305a.733.733 0 00-.478-.687z"/><path d="M44.837 32.367a2.516 2.516 0 00-3.536.314l-2.55 3.04-.42-.357a2.514 2.514 0 00-3.539.293 2.516 2.516 0 00.294 3.537l2.345 1.99a2.457 2.457 0 001.836.587 2.45 2.45 0 001.712-.89l4.169-4.975c.43-.514.635-1.166.577-1.834a2.492 2.492 0 00-.888-1.705zm-.812 2.598l-4.17 4.976a.98.98 0 01-.712.37.99.99 0 01-.765-.244l-2.345-1.99a1.046 1.046 0 011.35-1.596l.983.833a.734.734 0 001.035-.088l3.023-3.605a1.043 1.043 0 011.842.579c.024.279-.061.55-.24.765z"/></g><defs><clipPath id="clip0"><path fill="#fff" d="M0 0h50v50H0z"/></clipPath></defs></svg>