<svg width="81" height="13" fill="none" xmlns="http://www.w3.org/2000/svg"><path d="M30 5.023l-4.724-.31-1.779-4.47-1.779 4.47-4.718.31 3.619 3.073-1.188 4.661 4.066-2.57 4.066 2.57-1.187-4.661L30 5.023zm-17 0l-4.724-.31L6.497.242l-1.779 4.47L0 5.022l3.619 3.073-1.188 4.661 4.066-2.57 4.066 2.57-1.187-4.661L13 5.023zm34 0l-4.724-.31-1.779-4.47-1.779 4.47-4.718.31 3.619 3.073-1.188 4.661 4.066-2.57 4.066 2.57-1.187-4.661L47 5.023zm17 0l-4.724-.31-1.779-4.47-1.779 4.47-4.718.31 3.619 3.073-1.188 4.661 4.066-2.57 4.066 2.57-1.187-4.661L64 5.023zm17 0l-4.724-.31-1.779-4.47-1.778 4.47-4.719.31 3.619 3.073-1.188 4.661 4.066-2.57 4.066 2.57-1.187-4.661L81 5.023z" fill="#FFB800"/></svg>